<?xml version="1.0" encoding="UTF-8" standalone="no"?><!DOCTYPE svg PUBLIC "-//W3C//DTD SVG 1.1//EN" "http://www.w3.org/Graphics/SVG/1.1/DTD/svg11.dtd"><svg width="100%" height="100%" viewBox="0 0 2847 3795" version="1.1" xmlns="http://www.w3.org/2000/svg" xmlns:xlink="http://www.w3.org/1999/xlink" xml:space="preserve" xmlns:serif="http://www.serif.com/" style="fill-rule:evenodd;clip-rule:evenodd;stroke-linecap:round;stroke-linejoin:round;stroke-miterlimit:1.5;"><g><g><path d="M432.382,4.167c0,-0 10.453,336.331 -59.064,538.174c-69.518,201.843 -369.151,519.036 -369.151,519.036c228.582,92.196 443.611,133.508 929.298,80.914c-42.574,-86.686 -79.867,-224.441 -56.577,-350.398c-181.539,-65.059 -251.873,-7.899 -420.911,83.687c133.409,-125.199 353.754,-268.127 339.552,-496.445c-13.683,-219.975 -144.158,-354.028 -144.158,-354.028c-70.852,4.435 -124.906,-0.869 -218.989,-20.94Z" style="fill:none;stroke:#fff;stroke-width:8.33px;"/><path d="M1016.41,1128.91c-90.863,-187.905 -4.423,-397.585 -95.325,-570.067c91.467,68.979 197.267,84.761 299.728,-28.279c-59.607,187.425 -60.719,368.834 -2.38,556.26c-57.768,10.296 -122.935,28.045 -202.023,42.086Z" style="fill:none;stroke:#fff;stroke-width:8.33px;"/><path d="M927.153,438.32c-58.49,-157.824 -11.061,-230.942 237.701,-143.045c228.529,80.748 -136.548,415.991 -237.701,143.045Z" style="fill:none;stroke:#fff;stroke-width:8.33px;"/><path d="M1316.7,543.486c-85.894,184.735 -115.817,365.711 -12.971,525.379c82.419,-19.796 327.627,-43.281 425.827,-31.091c187.469,-159.586 -159.792,-218.687 -303.833,-83.058c-75.38,70.978 -0,-160.445 -0,-160.445c914.651,282.011 241.64,-492.551 -109.023,-250.785Zm137.46,69.819c73.783,-17.935 268.781,127.155 221.048,151.116c-57.598,28.912 -264.981,-140.437 -221.048,-151.116Z" style="fill:none;stroke:#fff;stroke-width:8.33px;"/><path d="M2163.34,1226.49c114.594,79.05 332.169,158.972 575.691,172.073c0,0 122.994,-218.128 -7.045,-182.521c-246.289,67.44 -417.196,86.283 -234.6,-57.158c-0,-0 448.746,106.015 322.669,-225.149c-71.906,-188.873 -337.312,-14.203 -337.312,-14.203c-96.349,201.559 -132.272,191.246 -319.403,306.958Zm388.77,-163.462c43.566,-46.982 151.331,-141.66 175.11,-82.743c17.281,42.819 -207.333,117.493 -175.11,82.743Z" style="fill:none;stroke:#fff;stroke-width:8.33px;"/><path d="M1747.49,53.752c295.258,749.008 191.893,833.903 40.883,992.962c80.432,13.991 206.447,66.939 320.149,146.963c335.262,-179.075 552.556,-647.208 -21.349,-488.169c169.665,-346.381 27.504,-524.845 -339.683,-651.756Zm455.621,859.799c-85.455,45.228 -236.194,52.438 -194.638,-8.717c36.274,-53.383 373.883,-86.151 194.638,8.717Z" style="fill:none;stroke:#fff;stroke-width:8.33px;"/></g><g><path d="M1647.19,1373.65c54.085,-109.087 115.772,-121.175 191.907,51.117c69.943,158.279 -285.443,137.541 -191.907,-51.117Z" style="fill:none;stroke:#fff;stroke-width:8.33px;"/><path d="M1880.44,1437c44.401,-89.554 95.042,-99.478 157.544,41.964c57.42,129.938 -234.332,112.914 -157.544,-41.964Z" style="fill:none;stroke:#fff;stroke-width:8.33px;"/><path d="M1425.73,1700.46c81.407,-226.771 103.118,-369.455 51.902,-526.518c-158.593,7.667 -524.951,143.104 -1002.93,124.415c209.018,344.967 308.045,830.958 318.232,1234.83c143.493,-25.899 286.167,-62.263 427.879,-110.915c-0,-0 -260.328,-152.7 -176.769,-338.78c63.815,-142.112 231.64,-65.412 231.64,-65.412l-20.563,-240.724c-172.946,81.726 -445.301,16.67 -372.34,-169.731c63.028,-161.022 306.077,-113.238 542.944,92.839Z" style="fill:none;stroke:#fff;stroke-width:8.33px;"/><path d="M1504.6,1652.98c80.301,-5.938 160.916,-5.853 241.811,-0.369c-88.708,176.858 -108.251,385.308 -31.035,387.494c91.097,2.579 143.809,-260.321 77.634,-379.582c79.74,15.52 167.655,56.136 260.79,112.773c-101.851,203.16 -135.786,323.598 -75.338,513.082c-68.95,-2.2 -118.738,0.746 -187.501,6.834c27.833,-54.976 34.067,-66.928 40.86,-100.113c0,0 -81.198,96.217 -186.79,119.804c-130.119,29.066 -145.053,-166.654 -145.053,-366.041c0,-116.234 4.622,-293.882 4.622,-293.882Z" style="fill:none;stroke:#fff;stroke-width:8.33px;"/><path d="M2076.38,2293.33c60.324,8.298 126.944,15.871 275.756,66.63c-161.967,-259.805 37.884,-497.726 199.776,-435.585c78.909,30.289 -194.723,178.033 -194.723,178.033c102.569,26.885 181.326,74.908 245.436,135.933c0,0 288.784,-235.57 100.365,-461.158c-88.196,-105.595 -277.353,30.58 -323.91,4.843c-60.863,-33.645 122.804,-160.024 122.804,-160.024l-241.941,-0.477c-206.465,216.802 -251.11,478.068 -183.563,671.805Z" style="fill:none;stroke:#fff;stroke-width:8.33px;"/></g><g><path d="M340.413,2654.77c96.455,43.457 207.803,54.499 331.786,38.038c462.619,364.164 134.339,658.927 464.629,1036.38c-220.644,48.617 -401.057,59.862 -536.808,61.15c95.295,-137.976 79.065,-224.741 90.723,-407.933c-45.533,43.282 -80.128,31.326 -104.852,-30.481c-76.616,233.31 -194.426,307.809 -101.612,438.131c-144.511,2.66 -303.954,-39.769 -444.545,-90.903c325.844,-199.252 358.014,-683.114 300.679,-1044.38Zm259.172,502.495c35.887,-74.718 23.846,-167.036 -9.537,-267.191c93.677,95.854 147.531,193.411 92.942,295.602c-27.802,19.157 -55.604,11.712 -83.405,-28.411Z" style="fill:none;stroke:#fff;stroke-width:8.33px;"/><path d="M826.842,2672.71c277.992,236.901 140.099,730.61 388.731,1037.41c224.402,-53.259 330.199,-63.341 394.812,-57.755c-743.458,-352.571 -227.112,-885.345 -550.277,-1038.73l-233.266,59.075Z" style="fill:none;stroke:#fff;stroke-width:8.33px;"/><path d="M1192.26,2574.57c247.281,431.819 -121.092,721.22 539.556,1089.42c101.845,2.159 147.306,4.978 276.311,-30.302c-90.751,-290.622 -677.068,-67.865 -502.923,-1147.34l-312.944,88.226Z" style="fill:none;stroke:#fff;stroke-width:8.33px;"/><path d="M1665.13,3165.79c128.083,-77.978 349.472,-185.704 519.8,-214.687c0,0 92.617,149.041 12.387,313.103c-73.988,151.296 -93.528,150.482 -92.678,177.551c0.891,28.409 81.812,45.041 225.799,-248.743c50.713,93.682 70.591,214.145 13.813,336.766c-69.588,16.117 -171.02,50.868 -267.568,82.763c-68.153,-210.071 -383.226,-265.909 -411.553,-446.753Zm351.274,167.61c-21.74,-39.692 91.488,-328.353 114.858,-289.742c61.497,101.602 -64.109,382.397 -114.858,289.742Z" style="fill:none;stroke:#fff;stroke-width:8.33px;"/></g></g></svg>